<?xml version="1.0" encoding="utf-8"?>
<!-- Generator: Adobe Illustrator 24.0.2, SVG Export Plug-In . SVG Version: 6.00 Build 0)  -->
<svg version="1.1" id="Layer_1" xmlns="http://www.w3.org/2000/svg" xmlns:xlink="http://www.w3.org/1999/xlink" x="0px" y="0px"
	 viewBox="0 0 5120 456" style="enable-background:new 0 0 5120 456;" xml:space="preserve">
<style type="text/css">
	.st0{fill:#7AD0DF;}
</style>
<path class="st0" d="M2641.4,402.5C2613.3,401,2525.7,199,2121,199c-259,0-281,66.5-314.1,61.5S1723.4,131,1562.2,137
	S1366.6,314.5,1339,322s-60-94.5-304.2-86.5C803,243.1,724.3,319.5,697,314S681,77,430.6,33.5C214.4-4,99.8,185,60.7,267.5
	c-9.2,19.5-32.7,29-52.1,19.7c-23.9-11.4-51.6,6-51.6,32.5v110.8c0,14.4,11.6,26,26,26h5120c24.3,0,44-19.7,44-44V233.9
	c0-6.2-0.6-12.5-2.5-18.4c-7.6-23.8-35.8-86-122-86c-141.5,0-87.5,125.2-183.7,120.5c-30.6-1.5-81.5-193.5-303.8-190
	s-251.1,211.5-284.5,209.5s-53.5-69.5-213.2-79c-202.5-12-246.4,95.5-283.8,89.5s-100.5-180.2-376-125.5
	c-221.1,43.9-186,234-237.7,223c-21.2-4.5-61.3-37.5-191.8-37.5c-53.8,0-57.6-8.3-110.8,0C2708.5,360.1,2669.5,404,2641.4,402.5z"/>
</svg>
